<?xml version="1.0" encoding="UTF-8" standalone="no"?>
<svg
   xmlns:dc="http://purl.org/dc/elements/1.1/"
   xmlns:cc="http://creativecommons.org/ns#"
   xmlns:rdf="http://www.w3.org/1999/02/22-rdf-syntax-ns#"
   xmlns:svg="http://www.w3.org/2000/svg"
   xmlns="http://www.w3.org/2000/svg"
   xmlns:sodipodi="http://sodipodi.sourceforge.net/DTD/sodipodi-0.dtd"
   xmlns:inkscape="http://www.inkscape.org/namespaces/inkscape"
   width="32"
   height="32"
   viewBox="0 0 8.4666663 8.466666"
   version="1.1"
   id="svg8"
   inkscape:version="1.0.2 (394de47547, 2021-03-26)"
   sodipodi:docname="google_scholar.svg">
  <defs
     id="defs2" />
  <sodipodi:namedview
     id="base"
     pagecolor="#ffffff"
     bordercolor="#666666"
     borderopacity="1.0"
     inkscape:pageopacity="0.0"
     inkscape:pageshadow="2"
     inkscape:zoom="3.959798"
     inkscape:cx="61.08352"
     inkscape:cy="7.9895183"
     inkscape:document-units="px"
     inkscape:current-layer="layer1"
     inkscape:document-rotation="0"
     showgrid="false"
     fit-margin-top="0"
     fit-margin-left="0"
     fit-margin-right="0"
     fit-margin-bottom="0"
     inkscape:window-width="1920"
     inkscape:window-height="1016"
     inkscape:window-x="0"
     inkscape:window-y="28"
     inkscape:window-maximized="1"
     units="px" />
  <metadata
     id="metadata5">
    <rdf:RDF>
      <cc:Work
         rdf:about="">
        <dc:format>image/svg+xml</dc:format>
        <dc:type
           rdf:resource="http://purl.org/dc/dcmitype/StillImage" />
        <dc:title></dc:title>
      </cc:Work>
    </rdf:RDF>
  </metadata>
  <g
     inkscape:label="Capa 1"
     inkscape:groupmode="layer"
     id="layer1"
     transform="translate(-39.535551,-60.339929)">
    <path
       style="fill:#ffffff;stroke-width:0.0706224"
       d="m 42.608499,68.847555 c -0.796644,-0.214078 -1.216117,-0.601353 -1.313937,-1.213082 -0.03839,-0.240094 -0.0114,-0.369104 0.143437,-0.685581 0.29607,-0.605146 0.858549,-0.921018 1.945636,-1.09261 0.252475,-0.03985 0.479455,-0.0727 0.5044,-0.07299 0.02494,-2.94e-4 -0.01678,-0.119709 -0.09273,-0.265368 -0.09307,-0.17849 -0.127312,-0.351178 -0.105041,-0.529669 0.0322,-0.258091 0.02725,-0.264834 -0.194596,-0.264834 -0.431221,0 -0.955043,-0.207409 -1.237708,-0.490074 -0.268314,-0.268314 -0.375402,-0.503019 -0.460202,-1.008624 l -0.04408,-0.262805 -0.90633,-0.01969 -0.906331,-0.01968 1.410478,-1.218238 1.410479,-1.218239 2.341228,7.74e-4 2.341227,7.74e-4 -0.229523,0.180892 c -0.185546,0.146233 -0.229523,0.23133 -0.229523,0.444138 0,0.144786 0.0324,0.295651 0.07201,0.335255 0.04582,0.04582 0.06508,0.648165 0.05297,1.656098 l -0.01904,1.58409 H 46.87945 46.667583 l -0.01904,-1.58409 c -0.01211,-1.007933 0.0071,-1.610281 0.05297,-1.656098 0.0396,-0.0396 0.07201,-0.132612 0.07201,-0.206684 0,-0.189346 -0.116465,-0.129049 -0.741333,0.38381 -0.384712,0.315752 -0.52259,0.470802 -0.489705,0.550695 0.307868,0.747948 0.123093,1.515454 -0.48883,2.030466 -0.335461,0.282334 -0.493482,0.553014 -0.442178,0.757426 0.02355,0.09384 0.282213,0.371953 0.574802,0.618026 0.330442,0.27791 0.586628,0.560296 0.676232,0.745394 0.176662,0.364935 0.189759,0.951191 0.02983,1.335052 -0.404666,0.971253 -1.973456,1.537581 -3.283831,1.185451 z m 1.996327,-0.42237 c 0.194405,-0.06624 0.41865,-0.214799 0.549927,-0.364315 0.205418,-0.233958 0.219471,-0.282832 0.191704,-0.666709 -0.0273,-0.377349 -0.05786,-0.442778 -0.343135,-0.73462 -0.511893,-0.523669 -0.712142,-0.618509 -1.219206,-0.577425 -0.6203,0.05026 -1.238862,0.313006 -1.439654,0.611521 -0.187521,0.278785 -0.215789,0.757181 -0.06219,1.052401 0.337025,0.64775 1.455141,0.974703 2.322551,0.679147 z m -0.309907,-4.073576 c 0.229569,-0.11798 0.428055,-0.398677 0.496497,-0.70214 0.07719,-0.342226 -0.03416,-0.986677 -0.24099,-1.394839 -0.598721,-1.181519 -1.873017,-0.928849 -1.873017,0.371386 0,1.189033 0.86531,2.112163 1.61751,1.725593 z"
       id="path847" />
  </g>
</svg>
